<svg width="77" height="28" viewBox="0 0 77 28" fill="none" xmlns="http://www.w3.org/2000/svg">
<path d="M7.20477 15.6287C7.20951 15.6237 7.21504 15.618 7.21899 15.6151L7.22215 15.6137C8.01278 14.954 8.92821 14.275 9.96449 13.6461C10.004 13.6211 10.034 13.6025 10.0514 13.5932C10.0514 13.5932 10.0545 13.5918 10.0561 13.5918C11.0379 13.0015 12.1263 12.4556 13.3142 12.007C13.4959 11.9347 13.5891 11.9018 13.537 11.9247C13.5354 11.9247 13.533 11.9261 13.5306 11.9275C13.5567 11.9175 13.5828 11.9089 13.6088 11.8996L13.5986 11.8617H13.5504C13.5022 11.8617 12.5252 12.2602 11.7559 12.6266C10.8831 13.0437 10.0261 13.5424 10.0206 13.5453C9.77334 13.6712 7.28613 15.4949 7.17713 15.5744C7.03811 15.6896 5.14328 17.4976 5.06271 17.572L5.05245 17.587C5.04929 17.5927 5.01769 17.65 4.98926 17.7365C5.55479 17.1234 6.29566 16.3886 7.20477 15.6287Z" fill="#06b6d4"/>
<path d="M5.00784 18.2688C5.10578 18.4756 5.32061 18.6252 5.64445 18.7103L5.66578 18.716L5.6871 18.7067C5.98961 18.5815 8.64902 17.4625 8.76986 17.0239L8.7746 17.006L8.7667 16.9888C8.75565 16.9659 7.73833 14.5741 13.5634 11.9719C13.5792 11.9647 13.6211 11.9468 13.61 11.9032L13.6092 11.8975C13.5832 11.9068 13.5571 11.9154 13.531 11.9254C7.59537 14.5784 8.7122 17.0089 8.7122 17.0089C8.59452 17.4353 5.66262 18.6566 5.66262 18.6566C4.66583 18.3898 5.10736 17.6099 5.10736 17.6099C5.10736 17.6099 6.98482 15.8212 7.20518 15.6266C6.29686 16.3864 5.55599 17.1219 4.99046 17.7344C4.94702 17.8703 4.91463 18.0728 5.00784 18.2688Z" fill="#06b6d4"/>
<path d="M13.3132 12.0077C12.1252 12.4563 11.0368 13.0022 10.0551 13.5925C10.1064 13.5617 10.931 13.0838 11.7832 12.6767C12.3819 12.3919 12.9893 12.1372 13.3132 12.0077Z" fill="#06b6d4"/>
<path d="M7.22131 15.6144C7.28924 15.5651 9.45815 13.9738 9.96365 13.6469C8.92738 14.275 8.01195 14.9548 7.22131 15.6144Z" fill="#06b6d4"/>
<path d="M13.3132 12.0082C13.3851 11.9816 13.457 11.9535 13.5296 11.9283C13.5312 11.9269 13.5336 11.9254 13.536 11.9254C13.5881 11.9017 13.4949 11.9355 13.3132 12.0082Z" fill="#06b6d4"/>
<path d="M10.0505 13.5932C10.0331 13.6033 10.0031 13.6214 9.96362 13.6468C9.99443 13.6287 10.0244 13.6091 10.0552 13.5917C10.0537 13.5917 10.0505 13.5932 10.0505 13.5932Z" fill="#06b6d4"/>
<path d="M7.21906 15.6154C7.21563 15.6189 7.20962 15.6257 7.20361 15.6317C7.20962 15.6257 7.21562 15.6189 7.22163 15.6137L7.21906 15.6154Z" fill="#06b6d4"/>
<path d="M11.7835 12.6759C10.9305 13.0831 10.1059 13.561 10.0553 13.5918C10.0245 13.6089 9.99372 13.6283 9.9637 13.6461C9.4582 13.9731 7.28929 15.5643 7.22136 15.6137C7.21583 15.618 7.20952 15.6237 7.20478 15.6287C6.98441 15.8234 5.10695 17.6121 5.10695 17.6121C5.10695 17.6121 4.66543 18.3919 5.66221 18.6588C5.66221 18.6588 8.59411 17.4375 8.7118 17.0111C8.7118 17.0111 7.59496 14.5806 13.5306 11.9276C13.458 11.9526 13.3853 11.9805 13.3142 12.007C12.9896 12.1372 12.3822 12.3919 11.7835 12.6759Z" fill="#06b6d4"/>
<path d="M61.7988 6.72633C61.7316 6.68554 61.6597 6.64548 61.5847 6.60756L61.4552 6.81863L61.4259 6.86799L61.3951 6.91736C61.4291 6.92595 61.4481 6.93096 61.4496 6.93167L61.4662 6.93597L61.4828 6.93239C61.6345 6.89947 61.779 6.8544 61.9172 6.80002C61.8991 6.78714 61.8785 6.77498 61.8588 6.76282C61.8382 6.75065 61.8201 6.73849 61.7988 6.72633Z" fill="#06b6d4"/>
<path d="M76.7655 11.1516C76.6178 8.65383 76.1131 6.76067 76.1131 6.76067C75.6732 5.12722 73.9134 5.60517 73.9134 5.60517C72.374 4.76805 70.5723 5.44561 70.5723 5.44561C67.8008 6.20188 66.7456 5.28606 66.7456 5.28606C65.2938 3.57248 64.3705 3.93094 64.3705 3.93094C61.9954 2.25814 56.4555 0.743465 56.4555 0.743465C51.3539 -0.212419 42.2043 0.0265525 42.2043 0.0265525C31.7381 0.186105 23.2054 6.40078 23.2054 6.40078L22.8974 6.20188C20.8303 6.16253 20.2143 7.19783 20.2143 7.19783C20.0831 7.55628 20.6984 8.31398 20.6984 8.31398L19.4663 8.15443C15.9665 7.5756 12.8861 8.03065 10.2756 8.96507L10.2764 8.97079C10.2883 9.01372 10.2456 9.03232 10.2298 9.03948C4.40473 11.6403 5.42284 14.0328 5.4331 14.0564L5.441 14.0729L5.43626 14.0908C5.31542 14.5279 2.65601 15.6477 2.3535 15.7736L2.33375 15.7822L2.31243 15.7765C1.98859 15.6899 1.77376 15.5403 1.67581 15.3336C1.58261 15.1375 1.615 14.9358 1.65765 14.802C0.788029 15.7457 0.335449 16.3996 0.335449 16.3996C-0.587879 16.9184 0.687719 21.4989 0.687719 21.4989C-0.764015 22.7352 0.994969 23.8106 0.994969 23.8106C2.62284 25.6022 26.3711 26.8779 26.3711 26.8779C33.2364 27.6241 40.6949 26.5323 42.228 26.2876L42.337 26.3913C43.7255 27.7186 45.9403 27.8631 46.8288 27.8631C47.0792 27.8631 47.2427 27.8502 47.2798 27.8488C47.5437 27.8402 52.2227 27.6463 54.0006 23.0865C54.0212 23.0322 54.0401 22.9785 54.0599 22.9227L61.0721 20.7426C63.9929 19.7016 68.0654 19.547 68.0654 19.547L69.2288 19.4161C69.1775 20.689 69.9334 20.9401 69.9658 20.9508L69.9981 20.958C70.1071 20.9773 70.2864 20.9859 70.5581 20.9859C71.5715 20.9859 73.4877 20.8557 73.6883 20.8421C73.697 20.8421 73.7057 20.8421 73.7151 20.8421C75.0279 20.8421 76.1194 17.9694 76.2419 17.6367C77.1873 14.7798 77.1044 12.6212 76.7655 11.1516ZM22.35 8.30253C22.3697 8.28321 24.3791 6.41652 27.7715 4.55555C30.9024 2.83768 35.8863 0.772086 41.852 0.689806C41.856 0.689806 42.367 0.679071 43.1411 0.679071C45.8597 0.679071 50.568 0.805712 51.5624 1.65642C51.6042 1.70006 52.4517 2.68886 50.3547 8.88851L50.3381 8.9343L50.286 8.92643C50.2662 8.92285 48.2324 8.60804 46.1535 8.60804C44.9332 8.60804 43.9364 8.71465 43.19 8.92429L43.1806 8.92715L43.1711 8.92643L22.2544 8.39125L22.35 8.30253ZM47.2633 27.4102L47.2443 27.4116C47.2427 27.4116 47.0855 27.4238 46.8281 27.4238C46.0256 27.4238 44.0644 27.3014 42.7983 26.1903L43.5391 24.5941L43.5273 24.5332C43.5241 24.5154 43.4499 24.0725 43.4017 23.3541C44.3756 25.165 46.0556 26.3627 47.967 26.3627C50.9787 26.3627 53.4217 23.3885 53.4217 19.7202C53.4217 16.0526 50.9787 13.0798 47.967 13.0798C47.4086 13.0798 46.8715 13.1814 46.366 13.371C46.565 13.1571 46.7767 12.9503 47.001 12.7507C47.0113 12.7421 47.9481 11.983 49.2126 11.983C50.7101 11.983 52.0466 13.0083 53.191 15.0302C53.2108 15.0653 55.2288 18.6191 53.5425 22.9434C51.8372 27.3143 47.4489 27.4073 47.2633 27.4102ZM2.37483 19.336C2.40721 19.3424 5.61161 19.9763 6.5452 20.1337C6.66052 20.1452 18.257 21.252 26.9082 21.5683C26.9105 21.5661 27.1436 21.5339 27.4247 21.5339C27.7257 21.5339 28.1245 21.5726 28.3133 21.7522C28.3931 21.8301 28.4286 21.9239 28.4215 22.0491C28.4239 22.0777 28.6743 24.8166 25.6073 25.1765C25.597 25.1765 24.5813 25.2044 22.9795 25.2044C18.5943 25.2044 7.81764 24.994 2.46882 23.0558L2.44433 23.0515C2.43485 23.0515 1.48625 23.0078 0.864644 19.2744L0.855166 19.253C0.840159 19.2315 0.802247 19.1621 0.828311 19.1185C0.852007 19.0763 0.93731 19.0541 1.06526 19.0541C1.33065 19.0541 1.76902 19.1485 2.37483 19.336ZM27.7604 17.3176C27.7596 17.3176 27.604 17.362 27.4492 17.362C27.3015 17.362 27.2091 17.324 27.1751 17.2518C27.0883 17.0643 27.2549 16.4647 29.3354 14.5508C29.7019 14.4421 36.8263 12.3164 39.9343 10.3617H42.194C40.9105 11.2181 31.6259 17.3176 27.822 17.3176H27.7675H27.7604ZM64.1636 4.34663C64.1557 4.36595 63.4661 6.19114 61.9157 6.80002C62.2616 7.03255 62.4851 7.30372 62.5775 7.61066C62.7253 8.09862 62.4772 8.48713 62.467 8.5043C61.655 9.78358 58.5675 9.74995 57.9822 9.73063L55.8489 11.2289L55.7896 11.2382C55.7636 11.2424 55.7359 11.2453 55.7051 11.2453C55.0645 11.2453 53.4683 10.4032 52.9746 10.1363L53.2242 9.75925C54.1578 10.2665 55.3118 10.7895 55.6601 10.8074L57.8266 9.28489L57.9167 9.28918C58.859 9.33354 61.4394 9.24124 62.0476 8.28321C62.0539 8.2732 62.2032 8.0285 62.106 7.72013C62.0215 7.44538 61.7648 7.19997 61.347 6.99105L61.3936 6.91664C61.1772 6.86155 60.3273 6.66121 59.419 6.66121C58.2374 6.66121 57.4333 6.98533 57.0321 7.62211C56.9989 7.6772 56.1688 8.96077 52.7195 8.96077C52.3933 8.96077 52.0497 8.94861 51.6982 8.92572L51.6343 8.92142L51.6429 8.86347C51.6864 8.56225 52.7385 1.48542 55.4366 1.48542H55.4658C55.4658 1.48542 55.5227 1.48113 55.6325 1.48113C56.4057 1.48113 59.3044 1.68361 64.1375 4.28224L64.1794 4.30442L64.1636 4.34663ZM73.6812 20.4035L73.6646 20.4056C73.6448 20.4063 71.5865 20.5487 70.5573 20.5487C70.2951 20.5487 70.1719 20.5401 70.1135 20.5315C70.0392 20.4951 69.7075 20.2947 69.7091 19.5449L70.3694 19.3288L70.4144 19.2616C70.4325 19.2322 70.9144 18.4624 71.5589 14.46C71.8258 13.2644 72.6552 10.0211 73.2989 9.27201L73.3234 9.23838C73.4513 9.01372 73.8944 8.4306 74.4031 8.4306C74.7072 8.4306 75.0247 8.63452 75.347 9.03876C75.3699 9.06667 77.632 11.9057 75.7806 17.5051C75.3691 18.6269 74.445 20.4071 73.7151 20.4071L73.6812 20.4035ZM74.6061 20.1087C74.5524 20.1745 74.4979 20.2411 74.4418 20.3055C74.4418 20.3055 74.3976 20.3842 74.1733 20.4786C74.0129 20.5752 73.8486 20.631 73.6835 20.6231C73.9023 20.5766 74.0619 20.5251 74.1733 20.4786C74.3225 20.3885 74.4663 20.2611 74.6061 20.1087C74.9023 19.7424 75.1629 19.351 75.3896 18.9417C75.6637 18.4302 75.8667 17.9436 75.9567 17.7147C75.7964 18.1368 75.6092 18.5489 75.3896 18.9417C75.1677 19.3567 74.8991 19.7867 74.6061 20.1087ZM76.0096 17.5745C76.0096 17.5745 76.0096 17.5773 76.0081 17.5809C76.0096 17.5773 76.0096 17.5745 76.012 17.5709C76.0112 17.5709 76.0112 17.573 76.0096 17.5745Z" fill="#06b6d4"/>
<path d="M75.9402 14.8749C76.2482 11.1924 75.3201 9.67841 74.2246 9.67841C73.1299 9.67841 72.1576 12.0932 72.1576 14.8749C72.1576 17.6553 72.5328 19.9177 73.5659 19.9105C74.6551 19.9041 75.7087 17.6474 75.9402 14.8749Z" fill="#06b6d4"/>
</svg>
